<svg width="181" height="214" viewBox="0 0 181 214" fill="none" xmlns="http://www.w3.org/2000/svg">
<mask id="mask0_20_531" style="mask-type:luminance" maskUnits="userSpaceOnUse" x="0" y="0" width="181" height="214">
<path d="M181 0H0V214H181V0Z" fill="white"/>
</mask>
<g mask="url(#mask0_20_531)">
<path d="M153.068 17.3699H140.742C136.299 17.3699 132.698 20.4145 132.698 24.1703V62.0405C132.698 65.7962 136.299 68.8409 140.742 68.8409H153.068C157.511 68.8409 161.113 65.7962 161.113 62.0405V24.1703C161.113 20.4145 157.511 17.3699 153.068 17.3699Z" fill="#EBC005"/>
<path d="M173.342 66.2313L98.1544 2.66972C96.121 0.959407 93.3691 -0.000732422 90.5006 -0.000732422C87.6321 -0.000732422 84.8802 0.959407 82.8468 2.66972L7.66084 66.2313C3.07277 70.5447 0.369348 76.0555 0 81.8476V93.0436C41.0768 118.877 90.9303 132.796 142.128 132.727C155.149 132.729 168.149 131.834 180.998 130.052V81.8476C180.624 76.057 177.924 70.5476 173.342 66.2313Z" fill="#EBC005"/>
<path d="M142.128 138.973C90.9304 139.042 41.077 125.122 0 99.29V159.769C0.00929122 162.193 1.15268 164.516 3.18058 166.229C5.20848 167.944 7.95621 168.91 10.8241 168.918H170.175C173.042 168.91 175.789 167.943 177.818 166.229C179.845 164.515 180.988 162.192 180.998 159.769V136.298C168.149 138.081 155.149 138.975 142.128 138.973Z" fill="#EBC005"/>
</g>
</svg>
